<?xml version="1.0" encoding="utf-8"?>
<!-- Generator: Adobe Illustrator 22.1.0, SVG Export Plug-In . SVG Version: 6.00 Build 0)  -->
<svg version="1.1" id="Layer_1" xmlns="http://www.w3.org/2000/svg" xmlns:xlink="http://www.w3.org/1999/xlink" x="0px" y="0px"
	 viewBox="0 0 100 100" style="enable-background:new 0 0 100 100;" xml:space="preserve">
<style type="text/css">
	.st0{clip-path:url(#SVGID_2_);fill:#FFFFFF;}
	.st1{clip-path:url(#SVGID_4_);fill:#FFFFFF;}
	.st2{clip-path:url(#SVGID_6_);fill:#FFFFFF;}
	.st3{clip-path:url(#SVGID_8_);fill:#FFFFFF;}
	.st4{clip-path:url(#SVGID_10_);fill:#FFFFFF;}
	.st5{clip-path:url(#SVGID_12_);enable-background:new    ;}
	.st6{clip-path:url(#SVGID_14_);}
	.st7{clip-path:url(#SVGID_16_);}
	.st8{clip-path:url(#SVGID_18_);fill:#FFFFFF;}
	.st9{clip-path:url(#SVGID_20_);}
	.st10{clip-path:url(#SVGID_22_);fill:#FFFFFF;}
	.st11{clip-path:url(#SVGID_24_);}
	.st12{clip-path:url(#SVGID_26_);fill:#FFFFFF;}
	.st13{clip-path:url(#SVGID_28_);}
	.st14{clip-path:url(#SVGID_30_);fill:#FFFFFF;}
	.st15{clip-path:url(#SVGID_32_);}
	.st16{clip-path:url(#SVGID_34_);fill:#FFFFFF;}
	.st17{clip-path:url(#SVGID_36_);}
	.st18{clip-path:url(#SVGID_38_);fill:#FFFFFF;}
	.st19{clip-path:url(#SVGID_40_);}
	.st20{clip-path:url(#SVGID_42_);fill:#FFFFFF;}
	.st21{clip-path:url(#SVGID_44_);}
	.st22{clip-path:url(#SVGID_46_);fill:#FFFFFF;}
	.st23{clip-path:url(#SVGID_48_);}
	.st24{clip-path:url(#SVGID_50_);fill:#FFFFFF;}
	.st25{clip-path:url(#SVGID_52_);}
	.st26{clip-path:url(#SVGID_54_);fill:#FFFFFF;}
	.st27{clip-path:url(#SVGID_56_);}
	.st28{clip-path:url(#SVGID_58_);fill:#FFFFFF;}
</style>
<g>
	<defs>
		<path id="SVGID_1_" d="M22.5,65c0.2-0.7,0.3-0.8,0.5-0.8c0.1,0,0.2,0.1,0.5,0.7c0.3,0.8,3.5,9.3,4.8,12.4c0.7,1.8,1.3,2.2,1.8,2.3
			c0.3,0.1,0.6,0.1,0.8,0.1c0.1,0,0.2,0,0.2,0.1c0,0.1-0.2,0.2-0.4,0.2c-0.3,0-1.8,0-3.2,0c-0.4,0-0.6,0-0.6-0.1
			c0-0.1,0.1-0.1,0.1-0.1c0.1,0,0.2-0.2,0.1-0.6l-1.9-5.1C25,74,25,74,24.9,74h-4.4c-0.1,0-0.2,0.1-0.2,0.2L19,77.8
			c-0.2,0.5-0.3,1-0.3,1.4c0,0.4,0.4,0.6,0.8,0.6h0.2c0.1,0,0.2,0,0.2,0.1c0,0.1-0.1,0.2-0.3,0.2c-0.5,0-1.4-0.1-1.6-0.1
			c-0.2,0-1.4,0.1-2.3,0.1c-0.3,0-0.4,0-0.4-0.2c0-0.1,0.1-0.1,0.2-0.1c0.1,0,0.4,0,0.6,0c0.9-0.1,1.4-0.9,1.7-1.9L22.5,65z
			 M24.6,73.3c0.1,0,0.1-0.1,0.1-0.1l-2-5.6c-0.1-0.3-0.2-0.3-0.3,0l-1.8,5.6c0,0.1,0,0.1,0.1,0.1H24.6z"/>
	</defs>
	<clipPath id="SVGID_2_">
		<use xlink:href="#SVGID_1_"  style="overflow:visible;"/>
	</clipPath>
	<rect x="13.4" y="62.4" class="st0" width="19.4" height="19.5"/>
</g>
<g>
	<defs>
		<path id="SVGID_3_" d="M34.1,78.1c-2-1.8-2.5-4.1-2.5-6.1c0-1.4,0.5-3.8,2.3-5.6c1.2-1.2,3.1-2.2,6.3-2.2c0.8,0,2,0.1,3,0.2
			c0.8,0.1,1.4,0.3,2.1,0.3c0.2,0,0.3,0.1,0.3,0.2c0,0.2-0.1,0.4-0.1,1.2c0,0.7,0,1.8-0.1,2.1c0,0.3-0.1,0.4-0.2,0.4
			c-0.1,0-0.2-0.1-0.2-0.4c0-0.8-0.3-1.6-0.9-2.1C43.4,65.5,41.8,65,40,65c-2.7,0-4,0.8-4.7,1.5c-1.5,1.4-1.9,3.3-1.9,5.4
			c0,3.9,3,7.5,7.4,7.5c1.5,0,2.8-0.2,3.6-1c0.4-0.5,0.7-1.4,0.8-1.7c0-0.2,0.1-0.3,0.2-0.3c0.1,0,0.1,0.1,0.1,0.3
			c0,0.1-0.2,1.9-0.5,2.6c-0.1,0.4-0.2,0.4-0.5,0.6c-0.8,0.3-2.4,0.5-3.7,0.5C37.8,80.4,35.7,79.6,34.1,78.1"/>
	</defs>
	<clipPath id="SVGID_4_">
		<use xlink:href="#SVGID_3_"  style="overflow:visible;"/>
	</clipPath>
	<rect x="29.8" y="62.4" class="st1" width="17.6" height="19.8"/>
</g>
<g>
	<defs>
		<path id="SVGID_5_" d="M50.5,70.5c0-3.2,0-3.8,0-4.5c0-0.7-0.2-1-0.9-1.2c-0.2,0-0.5-0.1-0.7-0.1c-0.1,0-0.2,0-0.2-0.1
			c0-0.1,0.1-0.2,0.3-0.2c0.9,0,2.2,0.1,2.3,0.1c0.5,0,1.3-0.1,2.2-0.1c3.4,0,4.1,2.1,4.1,3.1c0,1.7-1,2.7-1.9,3.7
			c1.5,0.5,3.6,1.9,3.6,4.4c0,2.2-1.7,4.5-5.3,4.5c-0.5,0-2.6-0.1-2.7-0.1c-0.1,0-1.4,0.1-2,0.1c-0.2,0-0.3,0-0.3-0.2
			c0-0.1,0-0.1,0.2-0.1c0.2,0,0.4,0,0.6-0.1c0.4-0.1,0.5-0.5,0.6-1.1c0.1-0.9,0.1-2.5,0.1-4.5V70.5z M52.2,70.9c0,0.1,0,0.2,0.1,0.2
			c0.1,0,0.5,0.1,1.3,0.1c1.2,0,1.4,0,1.9-0.5c0.4-0.5,0.7-1.2,0.7-2.1c0-1.7-0.8-3.5-2.8-3.5c-0.2,0-0.7,0-1,0.1
			c-0.2,0-0.2,0.1-0.2,0.2V70.9z M52.2,73.1c0,1.6,0,4.1,0,4.5c0.1,1,0.1,1.3,0.7,1.6c0.6,0.3,1.4,0.3,1.8,0.3
			c1.1,0,2.9-0.6,2.9-2.9c0-1.2-0.4-3-2-4.1c-0.7-0.5-1.2-0.5-1.7-0.6c-0.3,0-1.3,0-1.6,0c-0.1,0-0.1,0-0.1,0.1V73.1z"/>
	</defs>
	<clipPath id="SVGID_6_">
		<use xlink:href="#SVGID_5_"  style="overflow:visible;"/>
	</clipPath>
	<rect x="46.9" y="62.7" class="st2" width="14.3" height="19.3"/>
</g>
<g>
	<defs>
		<path id="SVGID_7_" d="M63.4,79.8c-0.3-0.1-0.3-0.2-0.3-0.8c0-1,0.1-1.9,0.1-2.2c0-0.2,0.1-0.3,0.2-0.3c0.1,0,0.1,0.1,0.1,0.2
			c0,0.2,0,0.5,0.1,0.8c0.3,1.5,1.7,2.1,3.1,2.1c2,0,2.9-1.4,2.9-2.7c0-1.4-0.6-2.2-2.4-3.7l-0.9-0.8c-2.2-1.8-2.7-3.1-2.7-4.5
			c0-2.2,1.6-3.7,4.3-3.7c0.8,0,1.4,0.1,1.9,0.2c0.4,0.1,0.6,0.1,0.7,0.1s0.2,0,0.2,0.1c0,0.1-0.1,0.8-0.1,2.2c0,0.3,0,0.5-0.1,0.5
			c-0.1,0-0.1-0.1-0.2-0.3c0-0.2-0.1-0.8-0.3-1c-0.1-0.2-0.7-1.1-2.6-1.1c-1.4,0-2.5,0.9-2.5,2.4c0,1.2,0.6,1.9,2.5,3.5l0.6,0.5
			c2.4,1.9,3,3.2,3,4.8c0,0.8-0.3,2.4-1.8,3.4c-0.9,0.6-2,0.9-3.1,0.9C65.2,80.4,64.2,80.2,63.4,79.8"/>
	</defs>
	<clipPath id="SVGID_8_">
		<use xlink:href="#SVGID_7_"  style="overflow:visible;"/>
	</clipPath>
	<rect x="61.2" y="62.4" class="st3" width="11.6" height="19.8"/>
</g>
<g>
	<defs>
		<path id="SVGID_9_" d="M76.5,70.5c0-3.2,0-3.8,0-4.5c0-0.7-0.2-1-0.9-1.2c-0.2,0-0.5-0.1-0.7-0.1c-0.1,0-0.2,0-0.2-0.1
			c0-0.1,0.1-0.2,0.3-0.2c0.9,0,2.2,0.1,2.3,0.1c0.5,0,1.6-0.1,2.6-0.1c2.6,0,3.5,0.9,3.8,1.2c0.5,0.4,1,1.4,1,2.5
			c0,2.9-2.1,4.9-5.1,4.9c-0.1,0-0.3,0-0.4,0c-0.1,0-0.2,0-0.2-0.1c0-0.2,0.1-0.2,0.6-0.2c2,0,3.6-1.5,3.6-3.4
			c0-0.7-0.1-2.1-1.2-3.2c-1.1-1.1-2.4-1-2.8-1c-0.4,0-0.7,0-0.9,0.1c-0.1,0-0.2,0.2-0.2,0.4v8.5c0,2,0,3.6,0.1,4.5
			c0.1,0.6,0.2,1.1,0.8,1.1c0.3,0,0.7,0.1,0.9,0.1c0.1,0,0.2,0.1,0.2,0.1c0,0.1-0.1,0.2-0.3,0.2c-1.1,0-2.4-0.1-2.5-0.1
			c-0.1,0-1.4,0.1-2,0.1c-0.2,0-0.3,0-0.3-0.2c0-0.1,0-0.1,0.2-0.1c0.2,0,0.4,0,0.6-0.1c0.4-0.1,0.5-0.5,0.6-1.1
			c0.1-0.9,0.1-2.5,0.1-4.5V70.5z"/>
	</defs>
	<clipPath id="SVGID_10_">
		<use xlink:href="#SVGID_9_"  style="overflow:visible;"/>
	</clipPath>
	<rect x="72.8" y="62.7" class="st4" width="13.8" height="19.2"/>
</g>
<g>
	<defs>
		<rect id="SVGID_11_" x="15" y="13.3" width="70" height="73.3"/>
	</defs>
	<clipPath id="SVGID_12_">
		<use xlink:href="#SVGID_11_"  style="overflow:visible;"/>
	</clipPath>
	<g class="st5">
		<g>
			<defs>
				<rect id="SVGID_13_" x="15" y="13.3" width="70" height="71.8"/>
			</defs>
			<clipPath id="SVGID_14_">
				<use xlink:href="#SVGID_13_"  style="overflow:visible;"/>
			</clipPath>
			<g class="st6">
				<defs>
					<rect id="SVGID_15_" x="15" y="83.9" width="69.7" height="1.1"/>
				</defs>
				<clipPath id="SVGID_16_">
					<use xlink:href="#SVGID_15_"  style="overflow:visible;"/>
				</clipPath>
				<g class="st7">
					<defs>
						<rect id="SVGID_17_" x="15" y="13.3" width="70" height="71.8"/>
					</defs>
					<clipPath id="SVGID_18_">
						<use xlink:href="#SVGID_17_"  style="overflow:visible;"/>
					</clipPath>
					<rect x="13.2" y="82.1" class="st8" width="73.3" height="4.7"/>
				</g>
			</g>
			<g class="st6">
				<defs>
					<path id="SVGID_19_" d="M45.6,53.2l-6.4-19.7L35.4,40L45.6,53.2C45.5,53.2,45.6,53.2,45.6,53.2"/>
				</defs>
				<clipPath id="SVGID_20_">
					<use xlink:href="#SVGID_19_"  style="overflow:visible;"/>
				</clipPath>
				<g class="st9">
					<defs>
						<rect id="SVGID_21_" x="15" y="13.3" width="70" height="71.8"/>
					</defs>
					<clipPath id="SVGID_22_">
						<use xlink:href="#SVGID_21_"  style="overflow:visible;"/>
					</clipPath>
					<rect x="33.6" y="31.6" class="st10" width="13.8" height="23.4"/>
				</g>
			</g>
			<g class="st6">
				<defs>
					<polygon id="SVGID_23_" points="43.8,25.5 39.6,32.7 47.2,51.1 					"/>
				</defs>
				<clipPath id="SVGID_24_">
					<use xlink:href="#SVGID_23_"  style="overflow:visible;"/>
				</clipPath>
				<g class="st11">
					<defs>
						<rect id="SVGID_25_" x="15" y="13.3" width="70" height="71.8"/>
					</defs>
					<clipPath id="SVGID_26_">
						<use xlink:href="#SVGID_25_"  style="overflow:visible;"/>
					</clipPath>
					<rect x="37.8" y="23.7" class="st12" width="11.2" height="29.2"/>
				</g>
			</g>
			<g class="st6">
				<defs>
					<path id="SVGID_27_" d="M50.8,21.9l1.1,31c0,0,0,0,0.1,0l5.8-27.3l-7-12.3l-7,12l5.7,26.4L50.8,21.9z"/>
				</defs>
				<clipPath id="SVGID_28_">
					<use xlink:href="#SVGID_27_"  style="overflow:visible;"/>
				</clipPath>
				<g class="st13">
					<defs>
						<rect id="SVGID_29_" x="15" y="13.3" width="70" height="71.8"/>
					</defs>
					<clipPath id="SVGID_30_">
						<use xlink:href="#SVGID_29_"  style="overflow:visible;"/>
					</clipPath>
					<rect x="42.1" y="11.5" class="st14" width="17.6" height="43.2"/>
				</g>
			</g>
			<g class="st6">
				<defs>
					<path id="SVGID_31_" d="M77.8,60.6l-11-19.3l-7.9,12.2C66,54.6,72.4,57.1,77.8,60.6"/>
				</defs>
				<clipPath id="SVGID_32_">
					<use xlink:href="#SVGID_31_"  style="overflow:visible;"/>
				</clipPath>
				<g class="st15">
					<defs>
						<rect id="SVGID_33_" x="15" y="13.3" width="70" height="71.8"/>
					</defs>
					<clipPath id="SVGID_34_">
						<use xlink:href="#SVGID_33_"  style="overflow:visible;"/>
					</clipPath>
					<rect x="57" y="39.4" class="st16" width="22.6" height="23"/>
				</g>
			</g>
			<g class="st6">
				<defs>
					<path id="SVGID_35_" d="M56.4,53.2l9.8-12.9l-3.7-6.5l-6.3,19.4C56.3,53.2,56.3,53.2,56.4,53.2"/>
				</defs>
				<clipPath id="SVGID_36_">
					<use xlink:href="#SVGID_35_"  style="overflow:visible;"/>
				</clipPath>
				<g class="st17">
					<defs>
						<rect id="SVGID_37_" x="15" y="13.3" width="70" height="71.8"/>
					</defs>
					<clipPath id="SVGID_38_">
						<use xlink:href="#SVGID_37_"  style="overflow:visible;"/>
					</clipPath>
					<rect x="54.4" y="31.9" class="st18" width="13.6" height="23"/>
				</g>
			</g>
			<g class="st6">
				<defs>
					<polyline id="SVGID_39_" points="54.6,51.2 62.1,33 58,25.8 					"/>
				</defs>
				<clipPath id="SVGID_40_">
					<use xlink:href="#SVGID_39_"  style="overflow:visible;"/>
				</clipPath>
				<g class="st19">
					<defs>
						<rect id="SVGID_41_" x="15" y="13.3" width="70" height="71.8"/>
					</defs>
					<clipPath id="SVGID_42_">
						<use xlink:href="#SVGID_41_"  style="overflow:visible;"/>
					</clipPath>
					<rect x="52.8" y="24" class="st20" width="11.1" height="29"/>
				</g>
			</g>
			<g class="st6">
				<defs>
					<path id="SVGID_43_" d="M34.9,40.9L23.1,61.2c5.5-3.9,12.4-6.6,20-7.8L34.9,40.9z"/>
				</defs>
				<clipPath id="SVGID_44_">
					<use xlink:href="#SVGID_43_"  style="overflow:visible;"/>
				</clipPath>
				<g class="st21">
					<defs>
						<rect id="SVGID_45_" x="15" y="13.3" width="70" height="71.8"/>
					</defs>
					<clipPath id="SVGID_46_">
						<use xlink:href="#SVGID_45_"  style="overflow:visible;"/>
					</clipPath>
					<rect x="21.2" y="39.1" class="st22" width="23.6" height="24"/>
				</g>
			</g>
			<g class="st6">
				<defs>
					<path id="SVGID_47_" d="M56.4,53.2c0,0-0.1,0-0.1,0"/>
				</defs>
				<clipPath id="SVGID_48_">
					<use xlink:href="#SVGID_47_"  style="overflow:visible;"/>
				</clipPath>
				<g class="st23">
					<defs>
						<rect id="SVGID_49_" x="15" y="13.3" width="70" height="71.8"/>
					</defs>
					<clipPath id="SVGID_50_">
						<use xlink:href="#SVGID_49_"  style="overflow:visible;"/>
					</clipPath>
					<rect x="54.4" y="51.3" class="st24" width="3.8" height="3.7"/>
				</g>
			</g>
			<g class="st6">
				<defs>
					<line id="SVGID_51_" x1="51.9" y1="52.9" x2="52" y2="53.2"/>
				</defs>
				<clipPath id="SVGID_52_">
					<use xlink:href="#SVGID_51_"  style="overflow:visible;"/>
				</clipPath>
				<g class="st25">
					<defs>
						<rect id="SVGID_53_" x="15" y="13.3" width="70" height="71.8"/>
					</defs>
					<clipPath id="SVGID_54_">
						<use xlink:href="#SVGID_53_"  style="overflow:visible;"/>
					</clipPath>
					<rect x="50.1" y="51.1" class="st26" width="3.7" height="3.9"/>
				</g>
			</g>
			<g class="st6">
				<defs>
					<path id="SVGID_55_" d="M45.6,53.2C45.6,53.2,45.5,53.2,45.6,53.2l0.1,0.2L45.6,53.2z"/>
				</defs>
				<clipPath id="SVGID_56_">
					<use xlink:href="#SVGID_55_"  style="overflow:visible;"/>
				</clipPath>
				<g class="st27">
					<defs>
						<rect id="SVGID_57_" x="15" y="13.3" width="70" height="71.8"/>
					</defs>
					<clipPath id="SVGID_58_">
						<use xlink:href="#SVGID_57_"  style="overflow:visible;"/>
					</clipPath>
					<rect x="43.7" y="51.3" class="st28" width="3.8" height="3.9"/>
				</g>
			</g>
		</g>
	</g>
</g>
</svg>
