<?xml version="1.0" encoding="UTF-8"?>
<svg width="50px" height="50px" viewBox="0 0 50 50" version="1.1" xmlns="http://www.w3.org/2000/svg" xmlns:xlink="http://www.w3.org/1999/xlink">
    <!-- Generator: Sketch 52.5 (67469) - http://www.bohemiancoding.com/sketch -->
    <title>Fill 1</title>
    <desc>Created with Sketch.</desc>
    <g id="Symbols" stroke="none" stroke-width="1" fill="none" fill-rule="evenodd">
        <g id="icon/light-blue/globe" transform="translate(-25.000000, -25.000000)" fill="#FFFFFF">
            <path d="M67.0362903,51.8397177 C66.452621,51.6935484 65.9435484,51.3356855 65.609879,50.8346774 L63.797379,48.1159274 C63.2550403,47.303629 63.2550403,46.2447581 63.797379,45.4324597 L65.7721774,42.4707661 C66.0060484,42.1209677 66.3266129,41.8366935 66.703629,41.6491935 L68.0120968,40.9949597 C69.375,43.7086694 70.1612903,46.7610887 70.1612903,50 C70.1612903,50.8739919 70.0866935,51.7298387 69.9778226,52.5745968 L67.0362903,51.8397177 Z M58.2953629,61.0483871 C57.9022177,61.4395161 57.4899194,61.8497984 57.1552419,62.1854839 C56.8538306,62.4879032 56.641129,62.8608871 56.5332661,63.265121 C56.3810484,63.8356855 56.2580645,64.4122984 56.0524194,64.9657258 L54.2993952,69.6885081 C52.9122984,69.9909274 51.4768145,70.1612903 50,70.1612903 L50,67.4012097 C50.1703629,66.1290323 49.2298387,63.7459677 47.71875,62.234879 C47.1139113,61.6300403 46.7741935,60.8094758 46.7741935,59.953629 L46.7741935,56.7268145 C46.7741935,55.5534274 46.1421371,54.4747984 45.1149194,53.9072581 C43.6663306,53.1058468 41.6058468,51.9858871 40.1945565,51.2752016 C39.0372984,50.6925403 37.9667339,49.9506048 37.0040323,49.0826613 L36.9233871,49.0100806 C36.2349798,48.3886089 35.6236895,47.6866935 35.1028226,46.9193548 C34.1572581,45.53125 32.6169355,43.2479839 31.6159274,41.7641129 C33.6794355,37.1774194 37.3981855,33.4939516 42.0191532,31.4929435 L44.4395161,32.703629 C45.5120968,33.2399194 46.7741935,32.4606855 46.7741935,31.2610887 L46.7741935,30.1219758 C47.5796371,29.9919355 48.3991935,29.9092742 49.2328629,29.8780242 L52.0856855,32.7308468 C52.7157258,33.3608871 52.7157258,34.3820565 52.0856855,35.0120968 L51.6129032,35.483871 L50.5705645,36.5262097 C50.2560484,36.8407258 50.2560484,37.3518145 50.5705645,37.6663306 L51.0433468,38.1391129 C51.3578629,38.453629 51.3578629,38.9647177 51.0433468,39.2792339 L50.2368952,40.0856855 C50.0854839,40.2367944 49.8802419,40.3216734 49.6663306,40.3215726 L48.7600806,40.3215726 C48.5504032,40.3215726 48.3487903,40.4032258 48.1975806,40.5504032 L47.1975806,41.5231855 C46.9460685,41.7681452 46.8816532,42.1474798 47.0383065,42.4616935 L48.609879,45.6058468 C48.8780242,46.1421371 48.4879032,46.7731855 47.8891129,46.7731855 L47.3205645,46.7731855 C47.1260081,46.7731855 46.9385081,46.702621 46.7923387,46.5756048 L45.8568548,45.7631048 C45.4261089,45.3895161 44.8303427,45.2706653 44.2893145,45.4506048 L41.1471774,46.4979839 C40.6552419,46.661996 40.3233871,47.1225806 40.3235887,47.641129 C40.3235887,48.0977823 40.5816532,48.5141129 40.9899194,48.71875 L42.1068548,49.2772177 C43.0554435,49.7520161 44.1018145,49.9989919 45.1622984,49.9989919 C46.2227823,49.9989919 47.4395161,52.75 48.3881048,53.2247984 L55.1169355,53.2247984 C55.9727823,53.2247984 56.7923387,53.5645161 57.3981855,54.1693548 L58.7782258,55.5493952 C59.3547379,56.1261089 59.678629,56.9082661 59.6784274,57.7237903 C59.6780242,58.971875 59.1802419,60.168246 58.2953629,61.0483871 Z M50,25 C36.1925403,25 25,36.1925403 25,50 C25,63.8074597 36.1925403,75 50,75 C63.8074597,75 75,63.8074597 75,50 C75,36.1925403 63.8074597,25 50,25 Z" id="Fill-1"></path>
        </g>
    </g>
</svg>