<?xml version="1.0" encoding="UTF-8"?>
<svg width="50px" height="41px" viewBox="0 0 50 41" version="1.1" xmlns="http://www.w3.org/2000/svg" xmlns:xlink="http://www.w3.org/1999/xlink">
    <!-- Generator: Sketch 52.5 (67469) - http://www.bohemiancoding.com/sketch -->
    <title>Fill 1</title>
    <desc>Created with Sketch.</desc>
    <g id="Symbols" stroke="none" stroke-width="1" fill="none" fill-rule="evenodd">
        <g id="icon/light-blue/list" transform="translate(-25.000000, -30.000000)" fill="#FFFFFF">
            <path d="M26.5625,70.625 L32.8125,70.625 C33.6754883,70.625 34.375,69.9254883 34.375,69.0625 L34.375,62.8125 C34.375,61.9495117 33.6754883,61.25 32.8125,61.25 L26.5625,61.25 C25.6995117,61.25 25,61.9495117 25,62.8125 L25,69.0625 C25,69.9254883 25.6995117,70.625 26.5625,70.625 M26.5625,55 L32.8125,55 C33.6754883,55 34.375,54.3004883 34.375,53.4375 L34.375,47.1875 C34.375,46.3245117 33.6754883,45.625 32.8125,45.625 L26.5625,45.625 C25.6995117,45.625 25,46.3245117 25,47.1875 L25,53.4375 C25,54.3004883 25.6995117,55 26.5625,55 M26.5625,39.375 L32.8125,39.375 C33.6754883,39.375 34.375,38.6754883 34.375,37.8125 L34.375,31.5625 C34.375,30.6995117 33.6754883,30 32.8125,30 L26.5625,30 C25.6995117,30 25,30.6995117 25,31.5625 L25,37.8125 C25,38.6754883 25.6995117,39.375 26.5625,39.375 M39.0625,69.453125 L73.4375,69.453125 C74.3004883,69.453125 75,68.7536133 75,67.890625 L75,63.984375 C75,63.1213867 74.3004883,62.421875 73.4375,62.421875 L39.0625,62.421875 C38.1995117,62.421875 37.5,63.1213867 37.5,63.984375 L37.5,67.890625 C37.5,68.7536133 38.1995117,69.453125 39.0625,69.453125 M39.0625,53.828125 L73.4375,53.828125 C74.3004883,53.828125 75,53.1286133 75,52.265625 L75,48.359375 C75,47.4963867 74.3004883,46.796875 73.4375,46.796875 L39.0625,46.796875 C38.1995117,46.796875 37.5,47.4963867 37.5,48.359375 L37.5,52.265625 C37.5,53.1286133 38.1995117,53.828125 39.0625,53.828125 M37.5,36.640625 L37.5,32.734375 C37.5,31.8713867 38.1995117,31.171875 39.0625,31.171875 L73.4375,31.171875 C74.3004883,31.171875 75,31.8713867 75,32.734375 L75,36.640625 C75,37.5036133 74.3004883,38.203125 73.4375,38.203125 L39.0625,38.203125 C38.1995117,38.203125 37.5,37.5036133 37.5,36.640625" id="Fill-1"></path>
        </g>
    </g>
</svg>