<?xml version="1.0" encoding="UTF-8"?>
<svg width="50px" height="40px" viewBox="0 0 50 40" version="1.1" xmlns="http://www.w3.org/2000/svg" xmlns:xlink="http://www.w3.org/1999/xlink">
    <!-- Generator: Sketch 52.5 (67469) - http://www.bohemiancoding.com/sketch -->
    <title>Fill 1</title>
    <desc>Created with Sketch.</desc>
    <g id="Symbols" stroke="none" stroke-width="1" fill="none" fill-rule="evenodd">
        <g id="icon/light-blue/handshake" transform="translate(-25.000000, -30.000000)" fill="#FFFFFF">
            <path d="M74.5883626,42.057595 L68.3481129,31.2463626 C67.6616855,30.0529148 66.1328243,29.6472986 64.9393766,30.3337261 L56.873776,34.9905123 L48.9019351,34.9905123 C47.9658977,34.9905123 47.0532611,35.2557229 46.2576293,35.7471426 L43.6445248,37.3774078 C42.9112955,37.8298259 42.474478,38.633258 42.474478,39.4912924 L42.474478,49.3430864 C42.474478,51.0669554 43.8707338,52.4632112 45.5946028,52.4632112 C47.3184718,52.4632112 48.7147276,51.0669554 48.7147276,49.3430864 L48.7147276,42.4788119 L63.0673017,42.4788119 C65.4775981,42.4788119 67.4354764,44.4366902 67.4354764,46.8469866 L67.4354764,49.0700755 L73.675726,45.4663314 C74.8691738,44.7721036 75.27479,43.2510428 74.5883626,42.057595 M63.0673017,44.9749117 L51.2108275,44.9749117 L51.2108275,49.3430864 C51.2108275,52.4398103 48.6913267,54.9593111 45.5946028,54.9593111 C42.4978789,54.9593111 39.9783782,52.4398103 39.9783782,49.3430864 L39.9783782,39.857907 L34.9159757,42.9000287 C33.4105154,43.7970646 32.4900786,45.4273298 32.4900786,47.1745997 L32.4900786,50.8641473 L26.249829,54.4678914 C25.0563813,55.1543189 24.6429647,56.68318 25.3371925,57.8766278 L31.5774421,68.6878602 C32.2638696,69.881308 33.7927307,70.2869242 34.9861785,69.6004967 L43.0517011,64.9437105 L53.7069273,64.9437105 C56.4604374,64.9437105 58.699127,62.7050209 58.699127,59.9515108 L59.9471769,59.9515108 C61.3278321,59.9515108 62.4432767,58.8360662 62.4432767,57.4554109 L62.4432767,52.4632112 L63.0673017,52.4632112 C64.1047432,52.4632112 64.9393766,51.6285779 64.9393766,50.5911364 L64.9393766,46.8469866 C64.9393766,45.8095451 64.1047432,44.9749117 63.0673017,44.9749117" id="Fill-1"></path>
        </g>
    </g>
</svg>