<?xml version="1.0" encoding="UTF-8"?>
<svg width="50px" height="30px" viewBox="0 0 50 30" version="1.1" xmlns="http://www.w3.org/2000/svg" xmlns:xlink="http://www.w3.org/1999/xlink">
    <!-- Generator: Sketch 52.5 (67469) - http://www.bohemiancoding.com/sketch -->
    <title>Fill 1</title>
    <desc>Created with Sketch.</desc>
    <g id="Symbols" stroke="none" stroke-width="1" fill="none" fill-rule="evenodd">
        <g id="icon/light-blue/graduate" transform="translate(-25.000000, -35.000000)" fill="#FFFFFF">
            <path d="M52.5613281,54.6166016 C50.3324219,55.3009766 48.4332031,54.9228516 47.4371094,54.6166016 L36.1074219,51.1361328 L34.9996094,60.0001953 C34.9996094,62.7619141 41.7152344,65.0001953 49.9996094,65.0001953 C58.2839844,65.0001953 64.9996094,62.7619141 64.9996094,60.0001953 L63.8917969,51.1353516 L52.5613281,54.6166016 Z M73.6199219,41.9689453 L51.8277344,35.2736328 C50.6402344,34.9087891 49.3589844,34.9087891 48.1722656,35.2736328 L26.3792969,41.9689453 C24.5402344,42.5337891 24.5402344,44.9658203 26.3792969,45.5306641 L30.1785156,46.6978516 C29.3449219,47.7283203 28.8324219,48.9853516 28.7816406,50.3619141 C28.0292969,50.7932422 27.4996094,51.5713672 27.4996094,52.5001953 C27.4996094,53.3423828 27.9433594,54.0509766 28.5824219,54.5041797 L26.5878906,63.4791016 C26.4144531,64.2595703 27.0082031,65.0001953 27.8074219,65.0001953 L32.1910156,65.0001953 C32.9910156,65.0001953 33.5847656,64.2595703 33.4113281,63.4791016 L31.4167969,54.5041797 C32.0558594,54.0509766 32.4996094,53.3423828 32.4996094,52.5001953 C32.4996094,51.5962891 31.9941406,50.8400391 31.2761719,50.4009766 C31.3355469,49.2275391 31.9355469,48.1900391 32.8925781,47.5322266 L48.1714844,52.2267578 C48.8792969,52.4439453 50.2371094,52.7150391 51.8269531,52.2267578 L73.6199219,45.5314453 C75.4597656,44.9658203 75.4597656,42.5345703 73.6199219,41.9689453 Z" id="Fill-1"></path>
        </g>
    </g>
</svg>