<?xml version="1.0" encoding="UTF-8"?>
<svg width="72px" height="50px" viewBox="0 0 72 50" version="1.1" xmlns="http://www.w3.org/2000/svg" xmlns:xlink="http://www.w3.org/1999/xlink">
    <!-- Generator: Sketch 52.5 (67469) - http://www.bohemiancoding.com/sketch -->
    <title>Fill 1</title>
    <desc>Created with Sketch.</desc>
    <g id="Symbols" stroke="none" stroke-width="1" fill="none" fill-rule="evenodd">
        <g id="icon/light-blue/network" transform="translate(-14.000000, -25.000000)" fill="#FFFFFF">
            <path d="M33.3191964,52.0758929 C32.0245536,50.7924107 30.25,50 28.2857143,50 L21.1428571,50 C17.203125,50 14,53.2032366 14,57.1428571 L14,60.7142857 C14,62.6898437 15.5959821,64.2857143 17.5714286,64.2857143 L24.9263393,64.2857143 C25.6294643,58.9955357 28.8214286,54.5425223 33.3191964,52.0758929 M58.2857143,53.5714286 L57.359375,53.5714286 C55.0379464,54.6875 52.4598214,55.3571429 49.7142857,55.3571429 C46.96875,55.3571429 44.4017857,54.6875 42.0691964,53.5714286 L41.1428571,53.5714286 C34.0446429,53.5714286 28.2857143,59.3303571 28.2857143,66.428683 L28.2857143,69.6428571 C28.2857143,72.6004464 30.6852679,75 33.6428571,75 L65.7857143,75 C68.7433036,75 71.1428571,72.6004464 71.1428571,69.6428571 L71.1428571,66.428683 C71.1428571,59.3303571 65.3839286,53.5714286 58.2857143,53.5714286 M49.7142857,50 C56.6227679,50 62.2142857,44.4084821 62.2142857,37.5 C62.2142857,30.5915179 56.6227679,25 49.7142857,25 C42.8058036,25 37.2142857,30.5915179 37.2142857,37.5 C37.2142857,44.4084821 42.8058036,50 49.7142857,50 M78.2857143,50 L71.1428571,50 C69.1785714,50 67.4040179,50.7924107 66.109375,52.0758929 C70.6071429,54.5425223 73.7991071,58.9955357 74.4910714,64.2857143 L81.8571429,64.2857143 C83.8325893,64.2857143 85.4285714,62.6898437 85.4285714,60.7142857 L85.4285714,57.1428571 C85.4285714,53.2032366 82.2254464,50 78.2857143,50 M74.7142857,46.4285714 C78.6540179,46.4285714 81.8571429,43.2254464 81.8571429,39.2857143 C81.8571429,35.3460938 78.6540179,32.1428571 74.7142857,32.1428571 C70.7745536,32.1428571 67.5714286,35.3460938 67.5714286,39.2857143 C67.5714286,43.2254464 70.7745536,46.4285714 74.7142857,46.4285714 M24.7142857,46.4285714 C28.6540179,46.4285714 31.8571429,43.2254464 31.8571429,39.2857143 C31.8571429,35.3460938 28.6540179,32.1428571 24.7142857,32.1428571 C20.7745536,32.1428571 17.5714286,35.3460938 17.5714286,39.2857143 C17.5714286,43.2254464 20.7745536,46.4285714 24.7142857,46.4285714" id="Fill-1"></path>
        </g>
    </g>
</svg>