<?xml version="1.0" encoding="UTF-8"?>
<svg width="50px" height="40px" viewBox="0 0 50 40" version="1.1" xmlns="http://www.w3.org/2000/svg" xmlns:xlink="http://www.w3.org/1999/xlink">
    <!-- Generator: Sketch 52.5 (67469) - http://www.bohemiancoding.com/sketch -->
    <title>Fill 1</title>
    <desc>Created with Sketch.</desc>
    <g id="Symbols" stroke="none" stroke-width="1" fill="none" fill-rule="evenodd">
        <g id="icon/light-blue/school" transform="translate(-25.000000, -30.000000)" fill="#FFFFFF">
            <path d="M72.5,45 L67.5,45 L67.5,70 L73.75,70 C74.440625,70 75,69.440625 75,68.75 L75,47.5 C75,46.1195312 73.8804688,45 72.5,45 M50,50 C46.5484375,50 43.75,47.2015625 43.75,43.75 C43.75,40.2984375 46.5484375,37.5 50,37.5 C53.4515625,37.5 56.25,40.2984375 56.25,43.75 C56.25,47.2015625 53.4515625,50 50,50 M63.8867188,38.753125 L51.3867188,30.4195313 C50.546875,29.8601563 49.453125,29.8601563 48.6132812,30.4195313 L36.1132812,38.753125 C35.4179688,39.2167188 35.0001563,39.9971094 35,40.8328125 L35,70 L45,70 L45,58.75 C45,58.059375 45.559375,57.5 46.25,57.5 L53.75,57.5 C54.440625,57.5 55,58.059375 55,58.75 L55,70 L65,70 L65,40.8335938 C65,39.9976563 64.5820312,39.2164063 63.8867188,38.753125 M53.125,43.75 L51.25,43.75 L51.25,40.625 C51.25,40.2796875 50.9703125,40 50.625,40 L49.375,40 C49.0296875,40 48.75,40.2796875 48.75,40.625 L48.75,45.625 C48.75,45.9703125 49.0296875,46.25 49.375,46.25 L53.125,46.25 C53.4703125,46.25 53.75,45.9703125 53.75,45.625 L53.75,44.375 C53.75,44.0296875 53.4703125,43.75 53.125,43.75 M25,47.5 L25,68.75 C25,69.440625 25.559375,70 26.25,70 L32.5,70 L32.5,45 L27.5,45 C26.1195313,45 25,46.1195312 25,47.5" id="Fill-1"></path>
        </g>
    </g>
</svg>