<?xml version="1.0" encoding="UTF-8"?>
<svg width="53px" height="50px" viewBox="0 0 53 50" version="1.1" xmlns="http://www.w3.org/2000/svg" xmlns:xlink="http://www.w3.org/1999/xlink">
    <!-- Generator: Sketch 52.5 (67469) - http://www.bohemiancoding.com/sketch -->
    <title>Fill 1</title>
    <desc>Created with Sketch.</desc>
    <g id="Symbols" stroke="none" stroke-width="1" fill="none" fill-rule="evenodd">
        <g id="icon/light-blue/levels" transform="translate(-24.000000, -25.000000)" fill="#FFFFFF">
            <path d="M73.5744681,25 L65.9148936,25 C64.5042553,25 63.3617021,26.11875 63.3617021,27.5 L63.3617021,72.5 C63.3617021,73.88125 64.5042553,75 65.9148936,75 L73.5744681,75 C74.9851064,75 76.1276596,73.88125 76.1276596,72.5 L76.1276596,27.5 C76.1276596,26.11875 74.9851064,25 73.5744681,25 M34.212766,54.787234 L26.5531915,54.787234 C25.1425532,54.787234 24,55.9178856 24,57.3138298 L24,72.4734043 C24,73.8693484 25.1425532,75 26.5531915,75 L34.212766,75 C35.6234043,75 36.7659574,73.8693484 36.7659574,72.4734043 L36.7659574,57.3138298 C36.7659574,55.9178856 35.6234043,54.787234 34.212766,54.787234 M54.4255319,39.893617 L46.7659574,39.893617 C45.3553191,39.893617 44.212766,41.0157675 44.212766,42.4012158 L44.212766,72.4924012 C44.212766,73.8778495 45.3553191,75 46.7659574,75 L54.4255319,75 C55.8361702,75 56.9787234,73.8778495 56.9787234,72.4924012 L56.9787234,42.4012158 C56.9787234,41.0157675 55.8361702,39.893617 54.4255319,39.893617" id="Fill-1"></path>
        </g>
    </g>
</svg>