<?xml version="1.0" encoding="UTF-8"?>
<svg width="50px" height="50px" viewBox="0 0 50 50" version="1.1" xmlns="http://www.w3.org/2000/svg" xmlns:xlink="http://www.w3.org/1999/xlink">
    <!-- Generator: Sketch 52.5 (67469) - http://www.bohemiancoding.com/sketch -->
    <title>Fill 1</title>
    <desc>Created with Sketch.</desc>
    <g id="Symbols" stroke="none" stroke-width="1" fill="none" fill-rule="evenodd">
        <g id="icon/light-blue/governance" transform="translate(-25.000000, -25.000000)" fill="#FFFFFF">
            <path d="M74.2173977,44.4310039 L72.012037,42.2256433 C71.0984893,41.3120955 69.6174951,41.3120955 68.7040448,42.2256433 L68.1525828,42.7770078 L57.1255848,31.7500097 L57.6768519,31.1986452 C58.5903996,30.2850975 58.5903996,28.8040058 57.6768519,27.8905556 L55.4714912,25.6850975 C54.5579435,24.7715497 53.0769493,24.7715497 52.163499,25.6850975 L40.0336745,37.8148246 C39.1201267,38.7283723 39.1201267,40.2094639 40.0336745,41.1229142 L42.2390351,43.3282749 C43.1525828,44.2418226 44.6336745,44.2418226 45.5471248,43.3282749 L46.0984893,42.7769103 L49.9579435,46.6363645 L42.059308,54.535 L41.5079435,53.9836355 C40.2899123,52.7656043 38.3151559,52.7656043 37.0971248,53.9836355 L25.913499,65.1674561 C24.6954678,66.3854873 24.6954678,68.3602437 25.913499,69.5782749 L30.3243177,73.9890936 C31.5423489,75.2071248 33.5172027,75.2071248 34.7351365,73.9890936 L45.9188596,62.8053704 C47.1368908,61.5873392 47.1368908,59.6125828 45.9188596,58.3945517 L45.3674951,57.8431871 L53.2661306,49.9445517 L57.1256823,53.8040058 L56.5742203,54.3553704 C55.6606725,55.2689181 55.6606725,56.7500097 56.5742203,57.66346 L58.7795809,59.8688207 C59.6931287,60.7823684 61.1743177,60.7823684 62.0876706,59.8688207 L74.2173977,47.7390936 C75.130848,46.8256433 75.130848,45.3445517 74.2173977,44.4310039" id="Fill-1"></path>
        </g>
    </g>
</svg>