<?xml version="1.0" encoding="UTF-8"?>
<svg width="50px" height="35px" viewBox="0 0 50 35" version="1.1" xmlns="http://www.w3.org/2000/svg" xmlns:xlink="http://www.w3.org/1999/xlink">
    <!-- Generator: Sketch 52.5 (67469) - http://www.bohemiancoding.com/sketch -->
    <title>Fill 1</title>
    <desc>Created with Sketch.</desc>
    <g id="Symbols" stroke="none" stroke-width="1" fill="none" fill-rule="evenodd">
        <g id="icon/light-blue/partners" transform="translate(-25.000000, -33.000000)" fill="#FFFFFF">
            <path d="M66.25,53 L65.953125,53 C64.8671875,53.375 63.71875,53.625 62.5,53.625 C61.28125,53.625 60.1328125,53.375 59.046875,53 L58.75,53 C57.15625,53 55.6875,53.4609375 54.3984375,54.203125 C56.3046875,56.2578125 57.5,58.984375 57.5,62 L57.5,65 C57.5,65.171875 57.4609375,65.3359375 57.453125,65.5 L71.25,65.5 C73.3203125,65.5 75,63.8203125 75,61.75 C75,56.9140625 71.0859375,53 66.25,53 M62.5,50.5 C66.640625,50.5 70,47.140625 70,43 C70,38.859375 66.640625,35.5 62.5,35.5 C58.359375,35.5 55,38.859375 55,43 C55,47.140625 58.359375,50.5 62.5,50.5 M46,53 L45.3515625,53 C43.7265625,53.78125 41.921875,54.25 40,54.25 C38.078125,54.25 36.28125,53.78125 34.6484375,53 L34,53 C29.03125,53 25,57.03125 25,62 L25,64.25 C25,66.3203125 26.6796875,68 28.75,68 L51.25,68 C53.3203125,68 55,66.3203125 55,64.25 L55,62 C55,57.03125 50.96875,53 46,53 M40,50.5 C44.8359375,50.5 48.75,46.5859375 48.75,41.75 C48.75,36.9140625 44.8359375,33 40,33 C35.1640625,33 31.25,36.9140625 31.25,41.75 C31.25,46.5859375 35.1640625,50.5 40,50.5" id="Fill-1"></path>
        </g>
    </g>
</svg>