<?xml version="1.0" encoding="UTF-8"?>
<svg width="50px" height="39px" viewBox="0 0 50 39" version="1.1" xmlns="http://www.w3.org/2000/svg" xmlns:xlink="http://www.w3.org/1999/xlink">
    <!-- Generator: Sketch 52.5 (67469) - http://www.bohemiancoding.com/sketch -->
    <title>Fill 1</title>
    <desc>Created with Sketch.</desc>
    <g id="Symbols" stroke="none" stroke-width="1" fill="none" fill-rule="evenodd">
        <g id="icon/light-blue/book" transform="translate(-25.000000, -31.000000)" fill="#FFFFFF">
            <path d="M47.9800347,35.8302257 C42.1440972,32.257309 32.6892361,31.2755382 27.9322917,31.0047049 C26.3333333,30.9144271 25,32.132309 25,33.6696354 L25,62.9968056 C25,64.4066146 26.1397569,65.5819618 27.6059028,65.6583507 C31.9019097,65.8840451 40.5911458,66.709566 46.5963542,69.7338715 C47.5182292,70.1981944 48.6111111,69.5653819 48.6111111,68.5654687 L48.6111111,36.9578299 C48.6111111,36.4986285 48.3836806,36.0776215 47.9800347,35.8302257 M72.0677083,31.0047049 C67.3107639,31.2746701 57.8559028,32.257309 52.0190972,35.8302257 C51.6163194,36.0767535 51.3880208,36.5151215 51.3880208,36.9734549 L51.3880208,68.5593924 C51.3880208,69.5619965 52.484375,70.1956771 53.4088542,69.7303993 C59.4140625,66.7077431 68.0989583,65.8830903 72.3932292,65.6574826 C73.859375,65.5802257 74.9991319,64.4048785 74.9991319,62.9960243 L74.9991319,33.6696354 C75,32.132309 73.6666667,30.9144271 72.0677083,31.0047049" id="Fill-1"></path>
        </g>
    </g>
</svg>